<svg data-v-a07d0c5a="" height="16px" width="16px" viewBox="0 0 16 16" fill="currentColor" xmlns="http://www.w3.org/2000/svg" class="h-icon mr-1" data-component-name="alt-topic">
	<g clip-path="url(#clip0_1_2)">
		<path d="M10.4 4.159H2.518A1.644 1.644 0 01.877 2.518 1.644 1.644 0 012.517.877h9.75a.438.438 0 100-.877h-9.75A2.522 2.522 0 000 2.518v10.964A2.521 2.521 0 002.518 16h9.748a.438.438 0 00.439-.438v-6.16l-.88.147v5.575H2.518a1.643 1.643 0 01-1.641-1.642V4.43c.441.379 1.015.61 1.64.61h7.444l.44-.88H10.4z"></path>
		<path d="M2.656 2.118a.438.438 0 000 .877h8.232a.438.438 0 100-.877H2.656zM9.76 12.16H6.88a.48.48 0 000 .96h2.88a.48.48 0 100-.96z"></path>
		<path fill-rule="evenodd" clip-rule="evenodd" d="M12.24 2.388a1.28 1.28 0 011.748-.468l.555.32a1.28 1.28 0 01.468 1.748l-2.56 4.434-2.105.448-.666-2.048 2.56-4.434zm1.428.086l.555.32a.64.64 0 01.234.874l-.32.555-1.663-.96.32-.555a.64.64 0 01.874-.234zm.149 2.303l-1.663-.96-1.777 3.078.4 1.23 1.263-.27 1.777-3.078z"></path>
	</g>
	<defs>
		<clipPath id="clip0_1_2">
			<path d="M0 0h16v16H0z"></path>
		</clipPath>
	</defs>
</svg>