<svg viewBox=" 0 0 1000 130" fill="none" xmlns="http://www.w3.org/2000/svg"><path d="M183.9 51.4h12.7l26.8 63.8H209l-5.7-14.2h-26.4l-5.7 14.2h-14l26.7-63.8zm14.4 37.3L190 68.2l-8.3 20.6h16.6v-.1zm26.5 2.5V91c0-13.9 10.5-25.3 25.1-25.3 9 0 14.7 3.1 19.1 8.1l-8.3 9.1c-3-3.3-6.1-5.3-10.9-5.3-6.8 0-11.6 6.1-11.6 13.2v.2c0 7.4 4.7 13.4 12.2 13.4 4.6 0 7.7-2 11-5.2l8 8.1c-4.6 5.2-10 8.9-19.6 8.9-14.5.1-25-11.1-25-25zm48.2 10.1v-.2c0-10.6 8-15.5 19.3-15.5 4.8 0 8.3.8 11.7 2v-.8c0-5.7-3.5-8.9-10.3-8.9-5.2 0-8.8 1-13.2 2.6L277.1 70c5.3-2.4 10.5-3.9 18.6-3.9 7.4 0 12.8 2 16.2 5.4 3.6 3.6 5.2 9 5.2 15.5v28.2H304V110c-3.3 3.7-7.9 6.2-14.5 6.2-9.1-.1-16.5-5.3-16.5-14.9zm31.2-3.2v-2.4c-2.3-1.1-5.4-1.8-8.7-1.8-5.8 0-9.4 2.4-9.4 6.7v.2c0 3.7 3 5.9 7.4 5.9 6.4-.1 10.7-3.6 10.7-8.6zm20.2-7v-.2c0-16.2 10.5-25.1 21.8-25.1 7.2 0 11.7 3.4 14.9 7.2V49.1h13.6v66.1h-13.6v-7c-3.3 4.5-7.9 7.9-14.9 7.9-11.2 0-21.8-8.8-21.8-25zm36.9 0v-.2c0-8.1-5.3-13.4-11.6-13.4S338 82.7 338 90.9v.2c0 8.1 5.4 13.4 11.7 13.4 6.3 0 11.6-5.4 11.6-13.4zm21 .1V91c0-13.9 9.7-25.3 23.7-25.3 16 0 23.3 12.6 23.3 26.3 0 1.1-.1 2.4-.2 3.6h-33.3c1.3 6.2 5.6 9.5 11.7 9.5 4.6 0 7.9-1.4 11.6-5l7.8 7c-4.5 5.6-10.9 9.1-19.6 9.1-14.4.1-25-10.1-25-25zm33.8-4c-.8-6.2-4.4-10.3-10.1-10.3-5.6 0-9.3 4.1-10.4 10.3h20.5zm21-20.5h13.6v6.9c3.1-4.1 7.2-7.8 14.1-7.8 6.3 0 11 2.8 13.5 7.7 4.2-5 9.2-7.7 15.7-7.7 10.1 0 16.2 6.2 16.2 17.8v31.6h-13.6v-27c0-6.5-2.9-9.9-8-9.9s-8.2 3.4-8.2 9.9v27.1h-13.6V88.2c0-6.5-2.9-9.9-8-9.9s-8.2 3.4-8.2 9.9v27.1H437V66.7h.1zm112.8 0H564l-18.4 49.7c-3.7 9.9-7.6 13.6-15.7 13.6-4.9 0-8.6-1.3-12.1-3.4l4.6-10c1.8 1.1 4 1.9 5.8 1.9 2.3 0 3.6-.7 4.7-3.2l-18.8-48.7h14.4l10.9 33 10.5-32.9zM114.7.9v114.8H0L114.7.9z" fill="#000"/><path d="M71.672 101.329h28.7v-7.2h-28.7v7.2z" fill="#fff"/><path d="M0 115.7V.9h114.7L0 115.7z" fill="url(#paint0_linear)"/><path d="M154.6 31l2.9-2.5c2.2 3.4 4.5 5.2 8.3 5.2 4.1 0 7.1-2.9 7.1-8.7V.8h4.1V25c0 4.2-1.2 7.4-3.3 9.5-2 2-4.7 3-7.9 3-5.4-.1-8.9-2.8-11.2-6.5zm29.9-7.4v-.1c0-7.7 5.4-13.9 12.8-13.9 7.9 0 12.4 6.3 12.4 14.1 0 .5 0 .8-.1 1.3h-21.2c.6 5.8 4.6 9 9.4 9 3.7 0 6.2-1.5 8.4-3.8l2.5 2.2c-2.7 3-5.9 5-11 5-7.2.1-13.2-5.5-13.2-13.8zm21.2-1.5c-.4-4.9-3.2-9.1-8.5-9.1-4.6 0-8.2 3.9-8.7 9.1h17.2zm11.5 7.7V13.7h-3.7v-3.5h3.7v-8h4v8.1h8.5v3.5h-8.5v15.6c0 3.3 1.8 4.4 4.5 4.4 1.3 0 2.5-.3 3.9-.9v3.4c-1.4.7-2.9 1.1-4.8 1.1-4.4 0-7.6-2.1-7.6-7.6zm19-29h15.4C255.7.8 259 2 261 4c1.5 1.5 2.3 3.5 2.3 5.8v.1c0 4.7-2.9 7.1-5.7 8.4 4.3 1.3 7.7 3.8 7.7 8.7v.1c0 6.2-5.2 9.9-13.1 9.9h-16V.8zm23 9.5c0-3.6-2.8-5.9-8-5.9h-11v12.4h10.7c4.9 0 8.3-2.2 8.3-6.5zm-7.6 10.2h-11.4v12.8h12.1c5.5 0 8.9-2.4 8.9-6.5v-.1c0-3.9-3.3-6.2-9.6-6.2zM273 10.2h4v7c2-4.4 5.8-7.6 10.9-7.4V14h-.3c-5.8 0-10.6 4.2-10.6 12.2v10.6h-4V10.2zm18.1 19v-.1c0-5.6 4.6-8.6 11.4-8.6 3.4 0 5.8.5 8.2 1.1v-.9c0-4.8-2.9-7.3-7.9-7.3-3.1 0-5.6.8-8.1 2l-1.2-3.3c2.9-1.3 5.8-2.2 9.7-2.2 3.8 0 6.7 1 8.6 2.9 1.8 1.8 2.7 4.4 2.7 7.8v16.3h-3.8v-4c-1.9 2.4-5 4.6-9.7 4.6-4.9 0-9.9-2.9-9.9-8.3zm19.7-2.1v-2.6c-2-.6-4.6-1.1-7.8-1.1-5 0-7.8 2.2-7.8 5.5v.1c0 3.4 3.1 5.3 6.7 5.3 4.8 0 8.9-3 8.9-7.2zM322.6 0h4.5v4.4h-4.5V0zm.3 10.2h4v26.7h-4V10.2zm12.6 0h4v4.6c1.8-2.9 4.5-5.2 9.1-5.2 6.5 0 10.2 4.3 10.2 10.7v16.6h-4V21.3c0-5-2.7-8.1-7.4-8.1-4.6 0-8 3.4-8 8.4v15.3h-4V10.2h.1zm29.2 23.3l2-2.8c2.9 2.2 6.1 3.4 9.2 3.4 3.2 0 5.5-1.7 5.5-4.2v-.1c0-2.7-3.1-3.7-6.7-4.7-4.2-1.2-8.8-2.6-8.8-7.5v-.1c0-4.6 3.8-7.6 9.1-7.6 3.3 0 6.9 1.1 9.6 2.9l-1.8 3c-2.5-1.6-5.3-2.6-7.9-2.6-3.1 0-5.2 1.7-5.2 3.9v.1c0 2.5 3.3 3.5 6.9 4.6 4.1 1.2 8.6 2.8 8.6 7.6v.1c0 5.1-4.2 8-9.5 8-3.8-.1-8-1.6-11-4z" fill="#000"/><defs><linearGradient id="paint0_linear" x1="74.547" y1="75.503" x2="-.454" y2=".502" gradientUnits="userSpaceOnUse"><stop offset=".233" stop-color="#21D789"/><stop offset=".89" stop-color="#AF1DF5"/></linearGradient></defs></svg>